<svg width="579" height="579" viewBox="0 0 579 579" fill="none" xmlns="http://www.w3.org/2000/svg">
<g clip-path="url(#clip0_220_2204)">
<rect width="579" height="579" rx="289.5" fill="#93C5FD"/>
<g clip-path="url(#clip1_220_2204)">
<circle cx="162.844" cy="334.734" r="45.2344" fill="#EAC0B3"/>
<path d="M162.844 370.922H316.641V595.922C316.641 595.922 283.684 615.187 239.742 615.187C195.8 615.187 162.844 583.728 162.844 583.728V370.922Z" fill="#EAC0B3"/>
<path d="M314.934 480.499C314.934 529.214 307.053 524.602 255.824 524.602C204.596 524.602 180.952 485.111 180.952 436.397C180.952 387.682 179.007 343.781 220.358 343.781C337.267 348.089 314.934 431.785 314.934 480.499Z" fill="#C99688"/>
<path d="M415.123 326.585C415.123 407.305 402.586 506.563 303.07 506.563C203.555 506.563 157.673 407.305 157.673 326.585C135.703 230.695 140.226 117.609 289.5 117.609C438.774 117.609 415.123 245.865 415.123 326.585Z" fill="#F5D0C5"/>
<rect x="325.688" y="370.922" width="27.1406" height="18.0938" rx="9.04688" fill="#EAC0B3"/>
</g>
<g clip-path="url(#clip2_220_2204)">
<g clip-path="url(#clip3_220_2204)">
<rect x="63.3281" y="542.812" width="361.875" height="208.078" rx="81.4219" fill="#E05A33"/>
<path d="M153.797 524.719H325.688V551.859C325.688 551.859 280.453 560.906 239.742 560.906C199.031 560.906 153.797 551.859 153.797 551.859V524.719Z" fill="#E05A33"/>
<path d="M153.797 524.719H325.688V542.812C325.688 542.812 298.547 556.383 239.742 556.383C180.938 556.383 153.797 542.812 153.797 542.812V524.719Z" fill="#C53926"/>
<path d="M149.273 533.766C149.273 523.773 157.374 515.672 167.367 515.672H312.117C322.11 515.672 330.211 523.773 330.211 533.766V533.766C330.211 533.766 284.977 542.812 239.742 542.812C194.508 542.812 149.273 533.766 149.273 533.766V533.766Z" fill="#E05A33"/>
</g>
</g>
<path fill-rule="evenodd" clip-rule="evenodd" d="M262.042 237.038C312.805 253.892 383.169 277.253 456.867 203.555C493.055 167.367 330.211 13.5703 199.031 99.5156C96.5007 114.705 102.36 176.141 106.882 223.554C107.747 232.619 108.563 241.171 108.563 248.789C108.563 253.61 109.193 257.218 110.375 259.81C108.92 270.966 108.562 282.129 108.562 289.5C108.562 309.486 124.764 325.688 144.75 325.688C164.736 325.688 180.937 309.486 180.937 289.5C200.923 289.5 217.125 273.298 217.125 253.313C217.125 250.182 216.728 247.145 215.98 244.248C216.36 244.26 216.742 244.266 217.125 244.266C228.196 244.266 238.106 239.294 244.744 231.462C250.213 233.111 255.988 235.028 262.042 237.038Z" fill="#47280B"/>
<g clip-path="url(#clip4_220_2204)">
<rect x="271.406" y="316.641" width="27.1406" height="36.1875" rx="13.5703" fill="#1B0B47"/>
<rect x="361.875" y="316.641" width="27.1406" height="36.1875" rx="13.5703" fill="#1B0B47"/>
</g>
<g clip-path="url(#clip5_220_2204)">
<path d="M261.713 416.156C261.713 411.16 265.763 407.109 270.76 407.109H353.474C358.471 407.109 362.521 411.16 362.521 416.156V416.156C362.521 441.139 342.269 461.391 317.287 461.391H306.947C281.965 461.391 261.713 441.139 261.713 416.156V416.156Z" fill="#66253C"/>
<path fill-rule="evenodd" clip-rule="evenodd" d="M332.515 458.763C327.757 460.464 322.63 461.391 317.287 461.391H306.948C282.571 461.391 262.698 442.109 261.749 417.965C268.661 415.378 278.92 415.676 289.047 415.97C292.264 416.063 295.468 416.156 298.547 416.156C318.533 416.156 334.734 430.333 334.734 447.82C334.734 451.667 333.951 455.353 332.515 458.763Z" fill="#B03E67"/>
<path d="M271.406 407.109H361.875V416.156C361.875 421.153 357.825 425.203 352.828 425.203H280.453C275.457 425.203 271.406 421.153 271.406 416.156V407.109Z" fill="white"/>
</g>
</g>
<defs>
<clipPath id="clip0_220_2204">
<rect width="579" height="579" rx="289.5" fill="white"/>
</clipPath>
<clipPath id="clip1_220_2204">
<rect width="579" height="579" fill="white"/>
</clipPath>
<clipPath id="clip2_220_2204">
<rect width="579" height="579" fill="white"/>
</clipPath>
<clipPath id="clip3_220_2204">
<rect width="579" height="579" fill="white"/>
</clipPath>
<clipPath id="clip4_220_2204">
<rect y="-9.04688" width="579" height="579" rx="289.5" fill="white"/>
</clipPath>
<clipPath id="clip5_220_2204">
<rect width="579" height="579" fill="white" transform="translate(9.04688)"/>
</clipPath>
</defs>
</svg>
