<svg width="547" height="547" viewBox="0 0 547 547" fill="none" xmlns="http://www.w3.org/2000/svg">
<g clip-path="url(#clip0_281_320)">
<rect width="547" height="547" rx="273.5" fill="#93C5FD"/>
<g clip-path="url(#clip1_281_320)">
<circle cx="162.844" cy="302.734" r="45.2344" fill="#F0BD70"/>
<path d="M162.844 338.922H316.641V563.922C316.641 563.922 283.684 583.188 239.742 583.188C195.8 583.188 162.844 551.728 162.844 551.728V338.922Z" fill="#F0BD70"/>
<path d="M316.641 455.335C316.641 506.485 284.975 510.809 256.778 501.643C228.581 492.477 171.889 412.685 171.889 361.535C171.889 310.385 178.983 311.781 220.86 311.781C339.258 316.305 316.641 404.185 316.641 455.335Z" fill="#E9B05B"/>
<path d="M415.123 294.585C415.123 375.305 379.955 465.578 321.15 479.148C235.205 470.102 157.673 375.305 157.673 294.585C135.703 198.695 140.226 85.6094 289.5 85.6094C438.774 85.6094 415.123 213.865 415.123 294.585Z" fill="#FFCB7E"/>
<rect x="325.688" y="338.922" width="27.1406" height="18.0938" rx="9.04688" fill="#F0BD70"/>
</g>
<g clip-path="url(#clip2_281_320)">
<g clip-path="url(#clip3_281_320)">
<rect x="63.3281" y="510.812" width="361.875" height="208.078" rx="81.4219" fill="#E05A33"/>
<path d="M153.797 492.719H325.688V519.859C325.688 519.859 280.453 528.906 239.742 528.906C199.031 528.906 153.797 519.859 153.797 519.859V492.719Z" fill="#E05A33"/>
<path d="M153.797 492.719H325.688V510.812C325.688 510.812 298.547 524.383 239.742 524.383C180.938 524.383 153.797 510.812 153.797 510.812V492.719Z" fill="#C53926"/>
<path d="M149.273 501.766C149.273 491.773 157.374 483.672 167.367 483.672H312.117C322.11 483.672 330.211 491.773 330.211 501.766C330.211 501.766 284.977 510.812 239.742 510.812C194.508 510.812 149.273 501.766 149.273 501.766Z" fill="#E05A33"/>
</g>
</g>
<g clip-path="url(#clip4_281_320)">
<g clip-path="url(#clip5_281_320)">
<path fill-rule="evenodd" clip-rule="evenodd" d="M434.25 194.172C434.25 172.787 430.038 151.611 421.854 131.854C413.671 112.097 401.676 94.1454 386.554 79.024C371.433 63.9025 353.481 51.9075 333.724 43.7239C313.967 35.5402 292.791 31.3281 271.406 31.3281C250.021 31.3281 228.846 35.5402 209.089 43.7239C189.332 51.9075 171.38 63.9025 156.258 79.024C141.137 94.1454 129.142 112.097 120.958 131.854C113.353 150.215 109.178 169.8 108.626 189.64L108.562 189.648V194.172V556.047H208.078V281C230.557 276.673 269.41 267.158 318.525 247.012C367.952 226.737 398.797 207.582 415.032 196.017C417.223 218.85 416.465 242.696 415.76 264.871C415.43 275.232 415.113 285.228 415.113 294.585C415.113 298.273 415.039 301.981 414.893 305.701C416.983 305.041 418.937 304.318 420.669 303.528C434.239 297.338 434.239 289.085 434.239 289.085V194.172H434.25ZM135.703 266.547C133.995 267.828 132.375 269.232 130.858 270.749C126.658 274.949 123.326 279.936 121.053 285.424C118.779 290.912 117.609 296.794 117.609 302.734C117.609 308.675 118.779 314.557 121.053 320.045C123.326 325.533 126.658 330.52 130.858 334.72C132.375 336.237 133.995 337.64 135.703 338.922V266.547Z" fill="#1B0B47"/>
</g>
</g>
<g clip-path="url(#clip6_281_320)">
<rect x="271.406" y="284.641" width="27.1406" height="36.1875" rx="13.5703" fill="#1B0B47"/>
<rect x="361.875" y="284.641" width="27.1406" height="36.1875" rx="13.5703" fill="#1B0B47"/>
</g>
<g clip-path="url(#clip7_281_320)">
<path d="M261.713 384.156C261.713 379.16 265.764 375.109 270.76 375.109H353.474C358.471 375.109 362.521 379.16 362.521 384.156C362.521 409.139 342.269 429.391 317.287 429.391H306.948C281.965 429.391 261.713 409.139 261.713 384.156Z" fill="#66253C"/>
<path fill-rule="evenodd" clip-rule="evenodd" d="M332.515 426.763C327.757 428.464 322.63 429.391 317.287 429.391H306.948C282.571 429.391 262.698 410.109 261.749 385.965C268.661 383.378 278.92 383.676 289.047 383.97C292.264 384.063 295.468 384.156 298.547 384.156C318.533 384.156 334.734 398.333 334.734 415.82C334.734 419.667 333.951 423.353 332.515 426.763Z" fill="#B03E67"/>
<path d="M271.406 375.109H361.875V384.156C361.875 389.153 357.825 393.203 352.828 393.203H280.453C275.457 393.203 271.406 389.153 271.406 384.156V375.109Z" fill="white"/>
</g>
</g>
<defs>
<clipPath id="clip0_281_320">
<rect width="547" height="547" rx="273.5" fill="white"/>
</clipPath>
<clipPath id="clip1_281_320">
<rect width="579" height="579" fill="white" transform="translate(0 -32)"/>
</clipPath>
<clipPath id="clip2_281_320">
<rect width="579" height="579" fill="white" transform="translate(0 -32)"/>
</clipPath>
<clipPath id="clip3_281_320">
<rect width="579" height="579" fill="white" transform="translate(0 -32)"/>
</clipPath>
<clipPath id="clip4_281_320">
<rect width="579" height="579" fill="white" transform="translate(0 -32)"/>
</clipPath>
<clipPath id="clip5_281_320">
<rect width="579" height="579" fill="white" transform="translate(0 -32)"/>
</clipPath>
<clipPath id="clip6_281_320">
<rect y="-41.0469" width="579" height="579" rx="289.5" fill="white"/>
</clipPath>
<clipPath id="clip7_281_320">
<rect width="579" height="579" fill="white" transform="translate(9.04688 -32)"/>
</clipPath>
</defs>
</svg>
