<svg width="579" height="579" viewBox="0 0 579 579" fill="none" xmlns="http://www.w3.org/2000/svg">
<g clip-path="url(#clip0_123_686)">
<rect width="579" height="579" rx="289.5" fill="#93C5FD"/>
<g clip-path="url(#clip1_123_686)">
<circle cx="162.844" cy="334.734" r="45.2344" fill="#F5D0C5"/>
<path d="M162.844 370.922H316.641V595.922C316.641 595.922 283.684 615.188 239.742 615.188C195.8 615.188 162.844 583.728 162.844 583.728V370.922Z" fill="#F5D0C5"/>
<path d="M316.641 487.335C316.641 538.485 284.975 542.809 256.778 533.643C228.581 524.477 171.889 444.685 171.889 393.535C171.889 342.385 178.983 343.781 220.86 343.781C339.258 348.305 316.641 436.185 316.641 487.335Z" fill="#C99688"/>
<path d="M415.123 326.585C415.123 407.305 379.955 497.578 321.15 511.148C235.205 502.102 157.673 407.305 157.673 326.585C135.703 230.695 140.226 117.609 289.5 117.609C438.774 117.609 415.123 245.865 415.123 326.585Z" fill="#F5D0C5"/>
<rect x="325.688" y="370.922" width="27.1406" height="18.0938" rx="9.04688" fill="#EAC0B3"/>
</g>
<g clip-path="url(#clip2_123_686)">
<g clip-path="url(#clip3_123_686)">
<rect x="63.3281" y="542.812" width="361.875" height="208.078" rx="81.4219" fill="#3633E0"/>
</g>
</g>
<g clip-path="url(#clip4_123_686)">
<path d="M-0.00897598 90.4512C72.341 18.111 117.618 117.603 117.618 117.603L99.5109 189.973C99.5109 189.973 81.4143 212.587 99.5109 280.439C117.608 348.291 76.8907 384.478 76.8907 384.478C76.8907 384.478 45.2342 407.109 18.0936 389.016C-9.04707 370.922 -12.6441 353.538 -9.04708 321.164C-4.52364 280.453 9.03894 294.009 9.03894 253.298C9.03894 212.587 -72.359 162.791 -0.00897598 90.4512Z" fill="#47280B"/>
<path d="M117.888 119.25L167.711 140.793L135.396 215.528L85.5725 193.984C85.5725 193.984 76.8977 176.414 90.4523 149.282C104.007 122.149 117.888 119.25 117.888 119.25Z" fill="black"/>
<path fill-rule="evenodd" clip-rule="evenodd" d="M162.844 370.922L150.871 291.102C131.699 296.35 117.609 313.897 117.609 334.734C117.609 359.717 137.861 379.969 162.844 379.969V455.058C148.827 442.706 136.376 427.995 125.909 411.358C110.522 386.901 99.7795 358.849 94.4078 329.097C89.0361 299.344 89.1598 268.584 94.7706 238.893C100.381 209.201 111.349 181.27 126.932 156.985C142.515 132.7 162.351 112.626 185.102 98.1186C207.852 83.6114 232.987 75.0086 258.808 72.891C264.445 72.4287 270.086 72.2778 275.713 72.4352C277.291 72.3951 278.872 72.375 280.453 72.375C303.026 72.375 325.378 76.4701 346.233 84.4264C367.088 92.3828 386.037 104.045 401.998 118.746C417.96 133.447 430.621 150.9 439.259 170.109C446.013 185.125 450.204 200.985 451.711 217.125H452.344V230.695V255.897C452.344 255.897 449.37 257.278 443.31 259.216V336.004C443.31 336.004 443.31 348.701 429.74 358.224C425.044 361.52 418.722 364.055 412.463 365.962C414.239 352.829 415.151 339.583 415.151 326.585C415.151 317.228 415.468 307.232 415.798 296.872V296.871V296.871C416.119 286.757 416.452 276.295 416.511 265.74C399.763 268.809 377.007 271.406 347.957 271.406C276.974 271.406 235.219 255.897 235.219 255.897V246.864C229.062 256.485 222.408 268.126 217.125 280.453C210.34 296.285 210.34 312.514 210.34 326.154C210.34 339.793 210.34 350.844 203.555 356.32C189.984 367.271 162.844 370.922 162.844 370.922Z" fill="#47280B"/>
</g>
<g clip-path="url(#clip5_123_686)">
<path d="M389.016 330.211C389.016 337.706 382.94 343.781 375.445 343.781C367.951 343.781 361.875 337.706 361.875 330.211L361.875 319.108C361.875 317.745 362.98 316.641 364.342 316.641L386.548 316.641C387.911 316.641 389.016 317.745 389.016 319.108L389.016 330.211Z" fill="#1B0B47"/>
<path d="M298.547 330.211C298.547 337.706 292.471 343.781 284.977 343.781C277.482 343.781 271.406 337.706 271.406 330.211L271.406 319.108C271.406 317.745 272.511 316.641 273.874 316.641L296.08 316.641C297.442 316.641 298.547 317.745 298.547 319.108L298.547 330.211Z" fill="#1B0B47"/>
<line x1="266.883" y1="321.164" x2="303.07" y2="321.164" stroke="#1B0B47" stroke-width="9.04688" stroke-linecap="round"/>
<line x1="357.352" y1="321.164" x2="393.539" y2="321.164" stroke="#1B0B47" stroke-width="9.04688" stroke-linecap="round"/>
</g>
<g clip-path="url(#clip6_123_686)">
<path d="M261.713 416.156C261.713 411.16 265.764 407.109 270.76 407.109H353.474C358.471 407.109 362.521 411.16 362.521 416.156C362.521 441.139 342.269 461.391 317.287 461.391H306.948C281.965 461.391 261.713 441.139 261.713 416.156Z" fill="#66253C"/>
<path fill-rule="evenodd" clip-rule="evenodd" d="M332.515 458.763C327.757 460.464 322.63 461.391 317.287 461.391H306.948C282.571 461.391 262.698 442.109 261.749 417.965C268.661 415.378 278.92 415.676 289.047 415.97C292.264 416.063 295.468 416.156 298.547 416.156C318.533 416.156 334.734 430.333 334.734 447.82C334.734 451.667 333.951 455.353 332.515 458.763Z" fill="#B03E67"/>
<path d="M271.406 407.109H361.875V416.156C361.875 421.153 357.825 425.203 352.828 425.203H280.453C275.457 425.203 271.406 421.153 271.406 416.156V407.109Z" fill="white"/>
</g>
<g clip-path="url(#clip7_123_686)">
<path d="M239.742 407.109C239.742 407.109 280.453 402.586 339.258 389.016V407.109C325.688 413.141 289.5 421.584 271.406 425.203C248.789 429.727 239.742 407.109 239.742 407.109Z" fill="#47280B"/>
<path d="M434.25 404.901C434.25 404.901 398.062 398.062 343.781 389.016V407.109C356.705 412.404 385.354 417.503 402.586 420.68C424.126 424.651 434.25 404.901 434.25 404.901Z" fill="#47280B"/>
<path d="M301.357 499.772C299.93 494.062 304.248 488.531 310.134 488.531H341.241C347.127 488.531 351.445 494.062 350.018 499.772L347.756 508.819C346.749 512.847 343.131 515.672 338.979 515.672H312.396C308.244 515.672 304.626 512.847 303.619 508.819L301.357 499.772Z" fill="#47280B"/>
</g>
</g>
<defs>
<clipPath id="clip0_123_686">
<rect width="579" height="579" rx="289.5" fill="white"/>
</clipPath>
<clipPath id="clip1_123_686">
<rect width="579" height="579" fill="white"/>
</clipPath>
<clipPath id="clip2_123_686">
<rect width="579" height="579" fill="white"/>
</clipPath>
<clipPath id="clip3_123_686">
<rect width="579" height="579" fill="white"/>
</clipPath>
<clipPath id="clip4_123_686">
<rect width="579" height="579" fill="white"/>
</clipPath>
<clipPath id="clip5_123_686">
<rect y="-9.04688" width="579" height="579" rx="289.5" fill="white"/>
</clipPath>
<clipPath id="clip6_123_686">
<rect width="579" height="579" fill="white" transform="translate(9.04688)"/>
</clipPath>
<clipPath id="clip7_123_686">
<rect width="579" height="579" rx="289.5" fill="white"/>
</clipPath>
</defs>
</svg>
