<svg width="579" height="579" viewBox="0 0 579 579" fill="none" xmlns="http://www.w3.org/2000/svg">
<g clip-path="url(#clip0_220_2204)">
<rect width="579" height="579" rx="289.5" fill="#93C5FD"/>
<g clip-path="url(#clip1_220_2204)">
<circle cx="162.844" cy="334.734" r="45.2344" fill="#F5D0C5"/>
<path d="M162.844 370.922H316.641V595.922C316.641 595.922 283.684 615.188 239.742 615.188C195.8 615.188 162.844 583.728 162.844 583.728V370.922Z" fill="#F5D0C5"/>
<path d="M316.641 487.335C316.641 538.485 284.975 542.809 256.778 533.643C228.581 524.477 171.889 444.685 171.889 393.535C171.889 342.385 178.983 343.781 220.86 343.781C339.258 348.305 316.641 436.185 316.641 487.335Z" fill="#C99688"/>
<path d="M415.123 326.585C415.123 407.305 379.955 497.578 321.15 511.148C235.205 502.102 157.673 407.305 157.673 326.585C135.703 230.695 140.226 117.609 289.5 117.609C438.774 117.609 415.123 245.865 415.123 326.585Z" fill="#F5D0C5"/>
<rect x="325.688" y="370.922" width="27.1406" height="18.0938" rx="9.04688" fill="#EAC0B3"/>
</g>
<g clip-path="url(#clip2_220_2204)">
<g clip-path="url(#clip3_220_2204)">
<rect x="63.3281" y="542.812" width="361.875" height="208.078" rx="81.4219" fill="#FF4DD8"/>
</g>
</g>
<g clip-path="url(#clip4_220_2204)">
<g clip-path="url(#clip5_220_2204)">
<path fill-rule="evenodd" clip-rule="evenodd" d="M434.25 226.172C434.25 204.787 430.038 183.611 421.854 163.854C413.671 144.097 401.676 126.145 386.554 111.024C371.433 95.9025 353.481 83.9075 333.724 75.7239C313.967 67.5402 292.791 63.3281 271.406 63.3281C250.021 63.3281 228.846 67.5402 209.089 75.7239C189.332 83.9075 171.38 95.9025 156.258 111.024C141.137 126.145 129.142 144.097 120.958 163.854C113.353 182.215 109.178 201.8 108.626 221.64L108.562 221.648V226.172V588.047H208.078V313C230.557 308.673 269.41 299.158 318.525 279.012C367.952 258.737 398.797 239.582 415.032 228.017C417.223 250.85 416.465 274.696 415.76 296.871C415.43 307.232 415.113 317.228 415.113 326.585C415.113 330.273 415.039 333.981 414.893 337.701C416.983 337.041 418.937 336.318 420.669 335.528C434.239 329.338 434.239 321.085 434.239 321.085V226.172H434.25ZM135.703 298.547C133.995 299.828 132.375 301.232 130.858 302.749C126.658 306.949 123.326 311.936 121.053 317.424C118.779 322.912 117.609 328.794 117.609 334.734C117.609 340.675 118.779 346.557 121.053 352.045C123.326 357.533 126.658 362.52 130.858 366.72C132.375 368.237 133.995 369.64 135.703 370.922V298.547Z" fill="#47280B"/>
</g>
</g>
<g clip-path="url(#clip6_220_2204)">
<path d="M271.406 330.211C271.406 322.716 277.482 316.641 284.977 316.641C292.471 316.641 298.547 322.716 298.547 330.211V341.314C298.547 342.677 297.442 343.781 296.08 343.781H273.874C272.511 343.781 271.406 342.677 271.406 341.314V330.211Z" fill="#1B0B47"/>
<path d="M361.875 330.211C361.875 322.716 367.951 316.641 375.445 316.641C382.94 316.641 389.016 322.716 389.016 330.211V341.314C389.016 342.677 387.911 343.781 386.548 343.781H364.342C362.98 343.781 361.875 342.677 361.875 341.314V330.211Z" fill="#1B0B47"/>
</g>
<g clip-path="url(#clip7_220_2204)">
<path d="M261.713 416.156C261.713 411.16 265.763 407.109 270.76 407.109H353.474C358.471 407.109 362.521 411.16 362.521 416.156C362.521 441.139 342.269 461.391 317.287 461.391H306.947C281.965 461.391 261.713 441.139 261.713 416.156Z" fill="#66253C"/>
<path fill-rule="evenodd" clip-rule="evenodd" d="M332.515 458.763C327.757 460.464 322.63 461.391 317.287 461.391H306.948C282.571 461.391 262.698 442.109 261.749 417.965C268.661 415.378 278.92 415.676 289.047 415.97C292.264 416.063 295.468 416.156 298.547 416.156C318.533 416.156 334.734 430.333 334.734 447.82C334.734 451.667 333.951 455.353 332.515 458.763Z" fill="#B03E67"/>
<path d="M271.406 407.109H361.875V416.156C361.875 421.153 357.825 425.203 352.828 425.203H280.453C275.457 425.203 271.406 421.153 271.406 416.156V407.109Z" fill="white"/>
</g>
</g>
<defs>
<clipPath id="clip0_220_2204">
<rect width="579" height="579" rx="289.5" fill="white"/>
</clipPath>
<clipPath id="clip1_220_2204">
<rect width="579" height="579" fill="white"/>
</clipPath>
<clipPath id="clip2_220_2204">
<rect width="579" height="579" fill="white"/>
</clipPath>
<clipPath id="clip3_220_2204">
<rect width="579" height="579" fill="white"/>
</clipPath>
<clipPath id="clip4_220_2204">
<rect width="579" height="579" fill="white"/>
</clipPath>
<clipPath id="clip5_220_2204">
<rect width="579" height="579" fill="white"/>
</clipPath>
<clipPath id="clip6_220_2204">
<rect y="-9.04688" width="579" height="579" rx="289.5" fill="white"/>
</clipPath>
<clipPath id="clip7_220_2204">
<rect width="579" height="579" fill="white" transform="translate(9.04688)"/>
</clipPath>
</defs>
</svg>
