<svg width="579" height="579" viewBox="0 0 579 579" fill="none" xmlns="http://www.w3.org/2000/svg">
<g clip-path="url(#clip0_5001_1621)">
<rect width="579" height="579" rx="289.5" fill="#93C5FD"/>
<g clip-path="url(#clip1_5001_1621)">
<circle cx="162.844" cy="334.734" r="45.2344" fill="#F5D0C5"/>
<path d="M162.844 370.922H316.641V595.922C316.641 595.922 283.684 615.188 239.742 615.188C195.8 615.188 162.844 583.728 162.844 583.728V370.922Z" fill="#F5D0C5"/>
<path d="M316.641 487.335C316.641 538.485 284.975 542.809 256.778 533.643C228.581 524.477 171.889 444.685 171.889 393.535C171.889 342.385 178.983 343.781 220.86 343.781C339.258 348.305 316.641 436.185 316.641 487.335Z" fill="#C99688"/>
<path d="M415.123 326.585C415.123 407.305 379.955 497.578 321.15 511.148C235.205 502.102 157.673 407.305 157.673 326.585C135.703 230.695 140.226 117.609 289.5 117.609C438.774 117.609 415.123 245.865 415.123 326.585Z" fill="#F5D0C5"/>
<rect x="325.688" y="370.922" width="27.1406" height="18.0938" rx="9.04688" fill="#EAC0B3"/>
</g>
<g clip-path="url(#clip2_5001_1621)">
<g clip-path="url(#clip3_5001_1621)">
<rect x="63.3281" y="542.812" width="361.875" height="208.078" rx="81.4219" fill="#3633E0"/>
</g>
</g>
<path fill-rule="evenodd" clip-rule="evenodd" d="M262.042 237.038C312.805 253.891 383.169 277.253 456.867 203.554C493.055 167.367 330.211 13.5701 199.031 99.5154C96.5007 114.705 102.36 176.141 106.882 223.554C107.747 232.619 108.563 241.171 108.563 248.789C108.563 253.61 109.193 257.218 110.375 259.81C108.92 270.966 108.562 282.129 108.562 289.5C108.562 309.486 124.764 325.688 144.75 325.688C164.736 325.688 180.938 309.486 180.938 289.5C200.923 289.5 217.125 273.298 217.125 253.312C217.125 250.182 216.728 247.145 215.98 244.248C216.36 244.26 216.742 244.266 217.125 244.266C228.196 244.266 238.106 239.294 244.744 231.462C250.213 233.111 255.988 235.028 262.042 237.038Z" fill="#47280B"/>
<g clip-path="url(#clip4_5001_1621)">
<path d="M389.016 330.211C389.016 337.706 382.94 343.781 375.445 343.781C367.951 343.781 361.875 337.706 361.875 330.211L361.875 319.108C361.875 317.745 362.98 316.641 364.342 316.641L386.548 316.641C387.911 316.641 389.016 317.745 389.016 319.108L389.016 330.211Z" fill="#1B0B47"/>
<path d="M298.547 330.211C298.547 337.706 292.471 343.781 284.977 343.781C277.482 343.781 271.406 337.706 271.406 330.211L271.406 319.108C271.406 317.745 272.511 316.641 273.874 316.641L296.08 316.641C297.442 316.641 298.547 317.745 298.547 319.108L298.547 330.211Z" fill="#1B0B47"/>
<line x1="266.883" y1="321.164" x2="303.07" y2="321.164" stroke="#1B0B47" stroke-width="9.04688" stroke-linecap="round"/>
<line x1="357.352" y1="321.164" x2="393.539" y2="321.164" stroke="#1B0B47" stroke-width="9.04688" stroke-linecap="round"/>
</g>
<g clip-path="url(#clip5_5001_1621)">
<path d="M261.713 416.156C261.713 411.16 265.764 407.109 270.76 407.109H353.474C358.471 407.109 362.521 411.16 362.521 416.156C362.521 441.139 342.269 461.391 317.287 461.391H306.948C281.965 461.391 261.713 441.139 261.713 416.156Z" fill="#66253C"/>
<path fill-rule="evenodd" clip-rule="evenodd" d="M332.515 458.763C327.757 460.464 322.63 461.391 317.287 461.391H306.948C282.571 461.391 262.698 442.109 261.749 417.965C268.661 415.378 278.92 415.676 289.047 415.97C292.264 416.063 295.468 416.156 298.547 416.156C318.533 416.156 334.734 430.333 334.734 447.82C334.734 451.667 333.951 455.353 332.515 458.763Z" fill="#B03E67"/>
<path d="M271.406 407.109H361.875V416.156C361.875 421.153 357.825 425.203 352.828 425.203H280.453C275.457 425.203 271.406 421.153 271.406 416.156V407.109Z" fill="white"/>
</g>
</g>
<defs>
<clipPath id="clip0_5001_1621">
<rect width="579" height="579" rx="289.5" fill="white"/>
</clipPath>
<clipPath id="clip1_5001_1621">
<rect width="579" height="579" fill="white"/>
</clipPath>
<clipPath id="clip2_5001_1621">
<rect width="579" height="579" fill="white"/>
</clipPath>
<clipPath id="clip3_5001_1621">
<rect width="579" height="579" fill="white"/>
</clipPath>
<clipPath id="clip4_5001_1621">
<rect y="-9.04688" width="579" height="579" rx="289.5" fill="white"/>
</clipPath>
<clipPath id="clip5_5001_1621">
<rect width="579" height="579" fill="white" transform="translate(9.04688)"/>
</clipPath>
</defs>
</svg>
